<?xml version="1.0" encoding="utf-8"?>
<!-- Generator: Adobe Illustrator 22.0.0, SVG Export Plug-In . SVG Version: 6.00 Build 0)  -->
<svg version="1.1" id="Layer_1" xmlns="http://www.w3.org/2000/svg" xmlns:xlink="http://www.w3.org/1999/xlink" x="0px" y="0px"
	 viewBox="0 0 50 50" style="enable-background:new 0 0 50 50;" xml:space="preserve">
<style type="text/css">
	.st0{fill:#ffffff;}
	.st1{fill:#2178f3;}
</style>
<path class="st0" d="M25,0.9C11.4,0.9,0.4,11.2,0.4,24c0,6.4,2.7,12.1,7.1,16.3C8,41,8.3,41.9,8.2,42.7c-0.2,2.1-0.6,6.6-0.6,6.6
	s4.4-2.1,5.6-2.7c1-0.5,1.6-1,3.3-0.8c2.7,0.9,5.5,1.4,8.6,1.4c13.6,0,24.6-10.4,24.6-23.2C49.6,11.2,38.6,0.9,25,0.9z"/>
<g>
	<path class="st1" d="M15.1,29.1c-1,0-5.3,0-5.3,0l2.7-4.4c1.2-2,2.5-4,3.7-5.9c0.3-0.5,0.4-1,0.2-1.4c-0.2-0.4-0.7-0.6-1.3-0.6
		c-2.4,0-4.9,0-7.3,0c-0.8,0-1.2,0.4-1.2,1.1C6.5,18.6,7,19,7.7,19c0.9,0,5.6,0,5.6,0s-5,8-6.4,10.3c-0.4,0.6-0.4,1-0.2,1.4
		c0.2,0.4,0.6,0.6,1.2,0.6c1.4,0,6.1,0,7.2,0c0.5,0,0.9-0.1,1.2-0.4c0.2-0.2,0.3-0.5,0.3-0.8C16.6,29.2,15.6,29.1,15.1,29.1z"/>
	<path class="st1" d="M26.7,21.5c-0.3-0.1-0.7-0.2-1.1,0.1C25,22,24.5,21.9,24,21.7c-1.8-0.6-3.5-0.3-4.9,0.9
		c-1.4,1.3-2,2.9-1.6,4.8c0.3,1.4,1.3,2.7,2.7,3.4c1.4,0.7,3,0.7,4.6-0.1l0.2-0.1l0.2,0.2c0.7,0.7,1.1,0.6,1.4,0.4
		c0.3-0.2,0.7-0.7,0.7-0.9c0.1-2.6,0.1-5.4,0-8.1C27.3,22,27.1,21.6,26.7,21.5z M22.4,29.1C22.4,29.1,22.3,29.1,22.4,29.1
		c-0.7,0-1.4-0.3-1.9-0.8c-0.5-0.5-0.8-1.2-0.8-1.9c0-0.7,0.3-1.4,0.8-1.9c0.5-0.5,1.2-0.8,1.9-0.8c0,0,0,0,0,0
		c0.7,0,1.4,0.3,1.9,0.8c0.5,0.5,0.8,1.2,0.8,1.9C25,27.9,23.8,29.1,22.4,29.1z"/>
	<path class="st1" d="M39.3,21.4C39.3,21.4,39.3,21.4,39.3,21.4c-2.7,0-5,2.2-5,4.9c0,1.3,0.5,2.6,1.5,3.6c1,1,2.2,1.5,3.5,1.5
		c1.3,0,2.6-0.5,3.5-1.5c1-1,1.5-2.2,1.5-3.5C44.3,23.6,42.1,21.4,39.3,21.4z M41.2,28.3c-0.5,0.5-1.2,0.8-1.9,0.8c0,0,0,0,0,0
		c-1.5,0-2.6-1.1-2.7-2.6c0-0.7,0.2-1.4,0.7-2c0.5-0.5,1.2-0.8,1.9-0.8c0,0,0,0,0,0c1.5,0,2.7,1.2,2.7,2.7
		C42,27.1,41.7,27.7,41.2,28.3z"/>
	<path class="st1" d="M31.9,16.5c0-0.5-0.2-0.8-0.4-1.1c-0.2-0.1-0.4-0.2-0.6-0.2c-0.1,0-0.2,0-0.3,0c-0.4,0.1-0.9,0.3-0.9,1.5
		c0,4.4,0,8.8,0,13.2c0,0.6,0.1,1,0.4,1.2c0.2,0.2,0.5,0.3,0.8,0.3c0.3,0,1.1,0,1.1-1.5C32,28.3,32,18.1,31.9,16.5z"/>
</g>
</svg>
